<svg xmlns="http://www.w3.org/2000/svg" width="34.426" height="30.831" viewBox="0 0 34.426 30.831">
  <path id="storefront_FILL0_wght400_GRAD0_opsz48" d="M36.53,19.746V34.262a2.634,2.634,0,0,1-2.569,2.569H8.225a2.465,2.465,0,0,1-1.8-.771,2.465,2.465,0,0,1-.771-1.8V19.746a4.85,4.85,0,0,1-1.584-2.526,5.359,5.359,0,0,1,.086-3L6,8.441a3.364,3.364,0,0,1,1.2-1.8A3.2,3.2,0,0,1,9.167,6h23.68a3.438,3.438,0,0,1,2.1.664,3.381,3.381,0,0,1,1.242,1.777l1.884,5.781a5.231,5.231,0,0,1,.064,3A4.979,4.979,0,0,1,36.53,19.746ZM24.968,18.418a2.932,2.932,0,0,0,2.1-.814,2.143,2.143,0,0,0,.685-1.97L26.681,8.569H22.4v7.066a2.873,2.873,0,0,0,.728,1.948A2.337,2.337,0,0,0,24.968,18.418Zm-8.008,0a2.806,2.806,0,0,0,2.034-.814,2.649,2.649,0,0,0,.835-1.97V8.569H15.547l-1.071,7.066a2.238,2.238,0,0,0,.6,1.948,2.467,2.467,0,0,0,1.884.835Zm-7.794,0a2.5,2.5,0,0,0,1.777-.707,2.79,2.79,0,0,0,.878-1.734l1.113-7.408H8.653l-1.97,6.252a2.7,2.7,0,0,0,.343,2.462A2.448,2.448,0,0,0,9.167,18.418Zm23.852,0A2.515,2.515,0,0,0,35.181,17.3a2.686,2.686,0,0,0,.364-2.484l-1.97-6.252H29.293l1.113,7.408a2.79,2.79,0,0,0,.878,1.734A2.452,2.452,0,0,0,33.018,18.418ZM8.225,34.262H33.96V20.945q.043.043-.278.043h-.664a4.753,4.753,0,0,1-2.034-.45,6.814,6.814,0,0,1-1.906-1.392A4.835,4.835,0,0,1,27.366,20.5a5.184,5.184,0,0,1-2.27.492,6,6,0,0,1-2.205-.364,5.3,5.3,0,0,1-1.777-1.22,4.13,4.13,0,0,1-1.627,1.178,5.786,5.786,0,0,1-2.227.407,5.6,5.6,0,0,1-2.355-.471,4.816,4.816,0,0,1-1.756-1.37,9,9,0,0,1-2.013,1.37,4.531,4.531,0,0,1-1.97.471H8.589a.975.975,0,0,1-.364-.043Zm25.736,0h0Z" transform="translate(-3.897 -6)" fill="#f51169"/>
</svg>
