<svg xmlns="http://www.w3.org/2000/svg" width="27.221" height="34.026" viewBox="0 0 27.221 34.026">
  <path id="upload_file_FILL0_wght400_GRAD0_opsz48" d="M20.42,32.837h2.552V24.288l3.488,3.488,1.786-1.786L21.61,19.524l-6.55,6.55,1.786,1.786,3.573-3.573Zm-9.868,5.189A2.617,2.617,0,0,1,8,35.474V6.552a2.448,2.448,0,0,1,.766-1.786A2.448,2.448,0,0,1,10.552,4H25.906l9.315,9.315V35.474a2.617,2.617,0,0,1-2.552,2.552ZM24.63,14.463V6.552H10.552V35.474H32.669V14.463ZM10.552,6.552v0Z" transform="translate(-8 -4)" fill="#f51169"/>
</svg>
