<svg width="17" height="24" viewBox="0 0 17 24" fill="none" xmlns="http://www.w3.org/2000/svg">
<path d="M8.56071 4.38C7.95357 4.38 7.43244 4.165 6.99732 3.735C6.5622 3.305 6.34464 2.79 6.34464 2.19C6.34464 1.59 6.5622 1.075 6.99732 0.645C7.43244 0.215 7.95357 0 8.56071 0C9.16786 0 9.68899 0.215 10.1241 0.645C10.5592 1.075 10.7768 1.59 10.7768 2.19C10.7768 2.79 10.5592 3.305 10.1241 3.735C9.68899 4.165 9.16786 4.38 8.56071 4.38ZM15.0571 24V17.73H8.56071C7.95357 17.73 7.4375 17.52 7.0125 17.1C6.5875 16.68 6.375 16.17 6.375 15.57V8.16C6.375 7.56 6.5875 7.05 7.0125 6.63C7.4375 6.21 7.95357 6 8.56071 6C9.02619 6 9.42083 6.09 9.74464 6.27C10.0685 6.45 10.453 6.8 10.8982 7.32C11.7482 8.3 12.6792 9.12 13.6911 9.78C14.703 10.44 15.806 10.79 17 10.83V12.63C15.9679 12.63 14.9054 12.38 13.8125 11.88C12.7196 11.38 11.6673 10.71 10.6554 9.87V15.36H14.6929C15.3 15.36 15.8161 15.57 16.2411 15.99C16.6661 16.41 16.8786 16.92 16.8786 17.52V24H15.0571ZM5.95 24C4.27024 24 2.85863 23.435 1.71518 22.305C0.571726 21.175 0 19.78 0 18.12C0 16.76 0.500893 15.505 1.50268 14.355C2.50446 13.205 3.825 12.54 5.46429 12.36V14.19C4.37143 14.29 3.49613 14.735 2.83839 15.525C2.18066 16.315 1.85179 17.18 1.85179 18.12C1.85179 19.28 2.24137 20.25 3.02054 21.03C3.7997 21.81 4.77619 22.2 5.95 22.2C6.90119 22.2 7.78155 21.875 8.59107 21.225C9.40059 20.575 9.84583 19.71 9.92679 18.63H11.7786C11.6167 20.23 10.9488 21.525 9.775 22.515C8.60119 23.505 7.32619 24 5.95 24Z" fill="#30465E"/>
</svg>
